<svg id="visual" viewBox="0 0 900 50" width="900" height="50" xmlns="http://www.w3.org/2000/svg" xmlns:xlink="http://www.w3.org/1999/xlink" version="1.1"><rect x="0" y="0" width="900" height="50" fill="#fdebd2"></rect><path d="M0 19L41 21L82 24L123 19L164 25L205 22L245 29L286 27L327 20L368 17L409 27L450 16L491 16L532 16L573 23L614 27L655 21L695 16L736 22L777 17L818 28L859 18L900 24L900 51L859 51L818 51L777 51L736 51L695 51L655 51L614 51L573 51L532 51L491 51L450 51L409 51L368 51L327 51L286 51L245 51L205 51L164 51L123 51L82 51L41 51L0 51Z" fill="#d7e6f5"></path><path d="M0 22L41 26L82 29L123 25L164 23L205 20L245 30L286 23L327 23L368 26L409 23L450 30L491 21L532 24L573 28L614 30L655 21L695 21L736 24L777 22L818 20L859 21L900 24L900 51L859 51L818 51L777 51L736 51L695 51L655 51L614 51L573 51L532 51L491 51L450 51L409 51L368 51L327 51L286 51L245 51L205 51L164 51L123 51L82 51L41 51L0 51Z" fill="#d7e6f5"></path><path d="M0 26L41 25L82 26L123 27L164 23L205 30L245 24L286 30L327 26L368 32L409 25L450 27L491 25L532 32L573 28L614 24L655 23L695 24L736 26L777 26L818 24L859 22L900 23L900 51L859 51L818 51L777 51L736 51L695 51L655 51L614 51L573 51L532 51L491 51L450 51L409 51L368 51L327 51L286 51L245 51L205 51L164 51L123 51L82 51L41 51L0 51Z" fill="#d7e6f5"></path><path d="M0 26L41 24L82 33L123 32L164 23L205 28L245 24L286 26L327 24L368 25L409 31L450 29L491 31L532 33L573 30L614 25L655 28L695 33L736 26L777 27L818 24L859 29L900 29L900 51L859 51L818 51L777 51L736 51L695 51L655 51L614 51L573 51L532 51L491 51L450 51L409 51L368 51L327 51L286 51L245 51L205 51L164 51L123 51L82 51L41 51L0 51Z" fill="#d7e6f5"></path><path d="M0 28L41 28L82 26L123 28L164 32L205 31L245 29L286 34L327 30L368 33L409 34L450 34L491 34L532 28L573 29L614 27L655 35L695 30L736 26L777 28L818 27L859 34L900 34L900 51L859 51L818 51L777 51L736 51L695 51L655 51L614 51L573 51L532 51L491 51L450 51L409 51L368 51L327 51L286 51L245 51L205 51L164 51L123 51L82 51L41 51L0 51Z" fill="#d7e6f5"></path><path d="M0 36L41 30L82 32L123 34L164 35L205 30L245 36L286 34L327 29L368 36L409 29L450 33L491 31L532 34L573 29L614 36L655 31L695 31L736 35L777 32L818 32L859 36L900 36L900 51L859 51L818 51L777 51L736 51L695 51L655 51L614 51L573 51L532 51L491 51L450 51L409 51L368 51L327 51L286 51L245 51L205 51L164 51L123 51L82 51L41 51L0 51Z" fill="#d7e6f5"></path><path d="M0 34L41 33L82 37L123 34L164 34L205 36L245 35L286 37L327 34L368 37L409 38L450 38L491 35L532 35L573 32L614 31L655 37L695 35L736 35L777 38L818 33L859 38L900 32L900 51L859 51L818 51L777 51L736 51L695 51L655 51L614 51L573 51L532 51L491 51L450 51L409 51L368 51L327 51L286 51L245 51L205 51L164 51L123 51L82 51L41 51L0 51Z" fill="#d7e6f5"></path><path d="M0 36L41 38L82 37L123 37L164 39L205 38L245 39L286 34L327 40L368 40L409 34L450 36L491 36L532 39L573 36L614 34L655 40L695 38L736 36L777 37L818 37L859 35L900 37L900 51L859 51L818 51L777 51L736 51L695 51L655 51L614 51L573 51L532 51L491 51L450 51L409 51L368 51L327 51L286 51L245 51L205 51L164 51L123 51L82 51L41 51L0 51Z" fill="#d7e6f5"></path><path d="M0 41L41 37L82 39L123 36L164 39L205 38L245 41L286 40L327 40L368 41L409 37L450 37L491 37L532 38L573 36L614 41L655 38L695 40L736 40L777 40L818 41L859 40L900 37L900 51L859 51L818 51L777 51L736 51L695 51L655 51L614 51L573 51L532 51L491 51L450 51L409 51L368 51L327 51L286 51L245 51L205 51L164 51L123 51L82 51L41 51L0 51Z" fill="#d7e6f5"></path><path d="M0 40L41 39L82 40L123 42L164 42L205 41L245 42L286 42L327 40L368 39L409 41L450 40L491 40L532 40L573 39L614 41L655 42L695 40L736 41L777 43L818 43L859 40L900 40L900 51L859 51L818 51L777 51L736 51L695 51L655 51L614 51L573 51L532 51L491 51L450 51L409 51L368 51L327 51L286 51L245 51L205 51L164 51L123 51L82 51L41 51L0 51Z" fill="#d7e6f5"></path><path d="M0 42L41 44L82 43L123 44L164 44L205 44L245 42L286 44L327 44L368 44L409 42L450 43L491 42L532 42L573 42L614 43L655 45L695 43L736 42L777 42L818 43L859 42L900 42L900 51L859 51L818 51L777 51L736 51L695 51L655 51L614 51L573 51L532 51L491 51L450 51L409 51L368 51L327 51L286 51L245 51L205 51L164 51L123 51L82 51L41 51L0 51Z" fill="#d7e6f5"></path><path d="M0 45L41 46L82 44L123 45L164 45L205 45L245 46L286 44L327 44L368 45L409 45L450 45L491 45L532 46L573 44L614 46L655 44L695 45L736 45L777 44L818 45L859 46L900 45L900 51L859 51L818 51L777 51L736 51L695 51L655 51L614 51L573 51L532 51L491 51L450 51L409 51L368 51L327 51L286 51L245 51L205 51L164 51L123 51L82 51L41 51L0 51Z" fill="#d7e6f5"></path></svg>