<svg id="visual" viewBox="0 0 900 50" width="900" height="50" xmlns="http://www.w3.org/2000/svg" xmlns:xlink="http://www.w3.org/1999/xlink" version="1.1"><rect x="0" y="0" width="900" height="50" fill="#d7e6f5"></rect><path d="M0 38L41 38L82 37L123 36L164 35L205 36L245 37L286 40L327 37L368 35L409 39L450 35L491 38L532 36L573 37L614 39L655 36L695 37L736 37L777 37L818 40L859 39L900 39L900 51L859 51L818 51L777 51L736 51L695 51L655 51L614 51L573 51L532 51L491 51L450 51L409 51L368 51L327 51L286 51L245 51L205 51L164 51L123 51L82 51L41 51L0 51Z" fill="#4d6bc6"></path><path d="M0 36L41 40L82 38L123 36L164 37L205 39L245 39L286 40L327 38L368 38L409 38L450 38L491 39L532 38L573 37L614 36L655 38L695 37L736 37L777 40L818 37L859 37L900 39L900 51L859 51L818 51L777 51L736 51L695 51L655 51L614 51L573 51L532 51L491 51L450 51L409 51L368 51L327 51L286 51L245 51L205 51L164 51L123 51L82 51L41 51L0 51Z" fill="#4d6bc6"></path><path d="M0 38L41 41L82 39L123 37L164 39L205 39L245 38L286 37L327 37L368 40L409 37L450 41L491 39L532 37L573 37L614 40L655 39L695 39L736 37L777 38L818 40L859 38L900 41L900 51L859 51L818 51L777 51L736 51L695 51L655 51L614 51L573 51L532 51L491 51L450 51L409 51L368 51L327 51L286 51L245 51L205 51L164 51L123 51L82 51L41 51L0 51Z" fill="#4d6bc6"></path><path d="M0 42L41 40L82 42L123 38L164 41L205 40L245 39L286 40L327 41L368 41L409 39L450 42L491 38L532 41L573 40L614 41L655 39L695 39L736 40L777 40L818 40L859 40L900 38L900 51L859 51L818 51L777 51L736 51L695 51L655 51L614 51L573 51L532 51L491 51L450 51L409 51L368 51L327 51L286 51L245 51L205 51L164 51L123 51L82 51L41 51L0 51Z" fill="#4d6bc6"></path><path d="M0 39L41 41L82 41L123 40L164 41L205 39L245 42L286 39L327 40L368 42L409 39L450 42L491 41L532 40L573 42L614 41L655 42L695 41L736 43L777 40L818 41L859 42L900 40L900 51L859 51L818 51L777 51L736 51L695 51L655 51L614 51L573 51L532 51L491 51L450 51L409 51L368 51L327 51L286 51L245 51L205 51L164 51L123 51L82 51L41 51L0 51Z" fill="#4d6bc6"></path><path d="M0 41L41 41L82 41L123 42L164 42L205 41L245 40L286 41L327 41L368 42L409 42L450 41L491 42L532 42L573 41L614 41L655 42L695 43L736 42L777 41L818 42L859 42L900 42L900 51L859 51L818 51L777 51L736 51L695 51L655 51L614 51L573 51L532 51L491 51L450 51L409 51L368 51L327 51L286 51L245 51L205 51L164 51L123 51L82 51L41 51L0 51Z" fill="#4d6bc6"></path><path d="M0 43L41 43L82 43L123 43L164 44L205 44L245 43L286 42L327 43L368 44L409 44L450 43L491 44L532 43L573 42L614 43L655 44L695 42L736 42L777 44L818 42L859 42L900 42L900 51L859 51L818 51L777 51L736 51L695 51L655 51L614 51L573 51L532 51L491 51L450 51L409 51L368 51L327 51L286 51L245 51L205 51L164 51L123 51L82 51L41 51L0 51Z" fill="#4d6bc6"></path><path d="M0 44L41 43L82 44L123 45L164 45L205 43L245 44L286 43L327 44L368 45L409 45L450 44L491 44L532 44L573 43L614 43L655 44L695 43L736 44L777 44L818 45L859 43L900 43L900 51L859 51L818 51L777 51L736 51L695 51L655 51L614 51L573 51L532 51L491 51L450 51L409 51L368 51L327 51L286 51L245 51L205 51L164 51L123 51L82 51L41 51L0 51Z" fill="#4d6bc6"></path><path d="M0 45L41 45L82 45L123 45L164 45L205 45L245 45L286 44L327 44L368 45L409 45L450 45L491 44L532 44L573 45L614 44L655 46L695 46L736 45L777 45L818 45L859 45L900 46L900 51L859 51L818 51L777 51L736 51L695 51L655 51L614 51L573 51L532 51L491 51L450 51L409 51L368 51L327 51L286 51L245 51L205 51L164 51L123 51L82 51L41 51L0 51Z" fill="#4d6bc6"></path><path d="M0 46L41 46L82 45L123 46L164 46L205 45L245 45L286 45L327 45L368 46L409 45L450 45L491 46L532 46L573 45L614 46L655 46L695 46L736 45L777 46L818 46L859 45L900 46L900 51L859 51L818 51L777 51L736 51L695 51L655 51L614 51L573 51L532 51L491 51L450 51L409 51L368 51L327 51L286 51L245 51L205 51L164 51L123 51L82 51L41 51L0 51Z" fill="#4d6bc6"></path><path d="M0 46L41 47L82 47L123 47L164 46L205 46L245 46L286 47L327 47L368 47L409 47L450 46L491 47L532 47L573 46L614 46L655 47L695 46L736 46L777 47L818 46L859 46L900 47L900 51L859 51L818 51L777 51L736 51L695 51L655 51L614 51L573 51L532 51L491 51L450 51L409 51L368 51L327 51L286 51L245 51L205 51L164 51L123 51L82 51L41 51L0 51Z" fill="#4d6bc6"></path><path d="M0 47L41 48L82 47L123 47L164 48L205 48L245 47L286 48L327 48L368 48L409 47L450 48L491 47L532 48L573 47L614 48L655 48L695 48L736 47L777 47L818 47L859 47L900 47L900 51L859 51L818 51L777 51L736 51L695 51L655 51L614 51L573 51L532 51L491 51L450 51L409 51L368 51L327 51L286 51L245 51L205 51L164 51L123 51L82 51L41 51L0 51Z" fill="#4d6bc6"></path></svg>