<svg id="visual" viewBox="0 0 900 50" width="900" height="50" xmlns="http://www.w3.org/2000/svg" xmlns:xlink="http://www.w3.org/1999/xlink" version="1.1"><rect x="0" y="0" width="900" height="50" fill="#ffffff"></rect><path d="M0 25L41 18L82 25L123 19L164 19L205 25L245 24L286 23L327 19L368 25L409 20L450 25L491 24L532 26L573 26L614 26L655 25L695 21L736 23L777 19L818 21L859 24L900 19L900 51L859 51L818 51L777 51L736 51L695 51L655 51L614 51L573 51L532 51L491 51L450 51L409 51L368 51L327 51L286 51L245 51L205 51L164 51L123 51L82 51L41 51L0 51Z" fill="#fdebd2"></path><path d="M0 22L41 22L82 24L123 22L164 25L205 25L245 22L286 20L327 25L368 28L409 27L450 27L491 28L532 23L573 23L614 27L655 26L695 20L736 22L777 26L818 20L859 26L900 22L900 51L859 51L818 51L777 51L736 51L695 51L655 51L614 51L573 51L532 51L491 51L450 51L409 51L368 51L327 51L286 51L245 51L205 51L164 51L123 51L82 51L41 51L0 51Z" fill="#fdebd2"></path><path d="M0 28L41 26L82 26L123 27L164 30L205 27L245 27L286 25L327 24L368 29L409 25L450 27L491 29L532 26L573 29L614 28L655 24L695 24L736 30L777 23L818 27L859 23L900 24L900 51L859 51L818 51L777 51L736 51L695 51L655 51L614 51L573 51L532 51L491 51L450 51L409 51L368 51L327 51L286 51L245 51L205 51L164 51L123 51L82 51L41 51L0 51Z" fill="#fdebd2"></path><path d="M0 30L41 31L82 31L123 27L164 28L205 25L245 30L286 27L327 30L368 29L409 26L450 31L491 30L532 26L573 29L614 29L655 30L695 31L736 29L777 32L818 29L859 25L900 31L900 51L859 51L818 51L777 51L736 51L695 51L655 51L614 51L573 51L532 51L491 51L450 51L409 51L368 51L327 51L286 51L245 51L205 51L164 51L123 51L82 51L41 51L0 51Z" fill="#fdebd2"></path><path d="M0 32L41 33L82 28L123 28L164 28L205 30L245 30L286 30L327 33L368 31L409 33L450 28L491 33L532 32L573 29L614 33L655 31L695 31L736 29L777 28L818 30L859 31L900 29L900 51L859 51L818 51L777 51L736 51L695 51L655 51L614 51L573 51L532 51L491 51L450 51L409 51L368 51L327 51L286 51L245 51L205 51L164 51L123 51L82 51L41 51L0 51Z" fill="#fdebd2"></path><path d="M0 33L41 30L82 32L123 32L164 35L205 31L245 33L286 30L327 32L368 34L409 35L450 31L491 30L532 32L573 34L614 30L655 30L695 33L736 35L777 35L818 31L859 35L900 34L900 51L859 51L818 51L777 51L736 51L695 51L655 51L614 51L573 51L532 51L491 51L450 51L409 51L368 51L327 51L286 51L245 51L205 51L164 51L123 51L82 51L41 51L0 51Z" fill="#fdebd2"></path><path d="M0 37L41 33L82 37L123 34L164 34L205 37L245 34L286 34L327 34L368 37L409 36L450 37L491 34L532 35L573 34L614 35L655 34L695 35L736 35L777 35L818 36L859 35L900 36L900 51L859 51L818 51L777 51L736 51L695 51L655 51L614 51L573 51L532 51L491 51L450 51L409 51L368 51L327 51L286 51L245 51L205 51L164 51L123 51L82 51L41 51L0 51Z" fill="#fdebd2"></path><path d="M0 37L41 38L82 36L123 35L164 36L205 36L245 36L286 35L327 36L368 35L409 37L450 35L491 39L532 37L573 38L614 38L655 36L695 39L736 37L777 37L818 35L859 37L900 36L900 51L859 51L818 51L777 51L736 51L695 51L655 51L614 51L573 51L532 51L491 51L450 51L409 51L368 51L327 51L286 51L245 51L205 51L164 51L123 51L82 51L41 51L0 51Z" fill="#fdebd2"></path><path d="M0 38L41 38L82 37L123 38L164 38L205 38L245 40L286 39L327 40L368 40L409 39L450 38L491 38L532 40L573 38L614 39L655 39L695 39L736 37L777 39L818 38L859 41L900 38L900 51L859 51L818 51L777 51L736 51L695 51L655 51L614 51L573 51L532 51L491 51L450 51L409 51L368 51L327 51L286 51L245 51L205 51L164 51L123 51L82 51L41 51L0 51Z" fill="#fdebd2"></path><path d="M0 41L41 40L82 41L123 41L164 42L205 41L245 42L286 40L327 42L368 42L409 42L450 41L491 42L532 41L573 40L614 41L655 40L695 42L736 41L777 41L818 40L859 42L900 41L900 51L859 51L818 51L777 51L736 51L695 51L655 51L614 51L573 51L532 51L491 51L450 51L409 51L368 51L327 51L286 51L245 51L205 51L164 51L123 51L82 51L41 51L0 51Z" fill="#fdebd2"></path><path d="M0 42L41 42L82 43L123 43L164 43L205 42L245 43L286 42L327 43L368 44L409 44L450 43L491 42L532 44L573 42L614 43L655 42L695 43L736 44L777 42L818 44L859 42L900 43L900 51L859 51L818 51L777 51L736 51L695 51L655 51L614 51L573 51L532 51L491 51L450 51L409 51L368 51L327 51L286 51L245 51L205 51L164 51L123 51L82 51L41 51L0 51Z" fill="#fdebd2"></path><path d="M0 45L41 44L82 45L123 45L164 45L205 45L245 46L286 45L327 45L368 45L409 45L450 46L491 46L532 45L573 46L614 46L655 46L695 46L736 46L777 45L818 44L859 45L900 45L900 51L859 51L818 51L777 51L736 51L695 51L655 51L614 51L573 51L532 51L491 51L450 51L409 51L368 51L327 51L286 51L245 51L205 51L164 51L123 51L82 51L41 51L0 51Z" fill="#fdebd2"></path></svg>